<?xml version="1.0" standalone="no"?>
<!DOCTYPE svg PUBLIC "-//W3C//DTD SVG 20010904//EN"
 "http://www.w3.org/TR/2001/REC-SVG-20010904/DTD/svg10.dtd">
<svg version="1.0" xmlns="http://www.w3.org/2000/svg"
 width="660.000000pt" height="660.000000pt" viewBox="0 0 660.000000 660.000000"
 preserveAspectRatio="xMidYMid meet">
<metadata>
Created by potrace 1.14, written by Peter Selinger 2001-2017
</metadata>
<g transform="translate(0.000000,660.000000) scale(0.100000,-0.100000)"
fill="#000000" stroke="none">
<path d="M420 3335 l0 -1885 370 0 370 0 2 1202 3 1202 519 -1202 520 -1202
368 0 368 0 0 1885 0 1885 -370 0 -370 0 -2 -1199 -3 -1199 -516 1196 -516
1197 -371 3 -372 2 0 -1885z"/>
<path d="M3620 3335 l0 -1885 335 0 335 0 0 617 c0 340 -7 959 -16 1376 -8
418 -14 761 -12 762 2 2 100 -338 218 -756 l215 -759 185 2 184 3 240 792
c132 436 242 791 244 789 2 -2 -4 -361 -12 -797 -9 -437 -16 -1072 -16 -1411
l0 -618 335 0 335 0 0 1885 0 1885 -454 0 -453 0 -30 -102 c-17 -57 -106 -367
-199 -690 -93 -324 -171 -588 -174 -588 -3 0 -20 60 -38 133 -18 72 -96 383
-174 690 l-141 557 -454 0 -453 0 0 -1885z"/>
</g>
</svg>
